<?xml version="1.0" encoding="utf-8"?>
<!-- Generator: Adobe Illustrator 19.0.1, SVG Export Plug-In . SVG Version: 6.00 Build 0)  -->
<svg version="1.1" id="Layer_1" xmlns="http://www.w3.org/2000/svg" xmlns:xlink="http://www.w3.org/1999/xlink" x="0px" y="0px"
	 viewBox="0 0 156 70" style="enable-background:new 0 0 156 70;" xml:space="preserve">
<style type="text/css">
	.st0{stroke:#000000;stroke-width:1.3093;stroke-miterlimit:10;}
	.st1{fill:#BE1E2D;stroke:#BE1E2D;stroke-width:1.8799;stroke-miterlimit:10;}
	.st2{font-family:'ShreeDev0714';}
	.st3{font-size:41.9438px;}
	.st4{fill:none;stroke:#000000;stroke-width:0.9975;stroke-miterlimit:10;}
	.st5{stroke:#000000;stroke-width:1.9455;stroke-miterlimit:10;}
</style>
<g>
	<path class="st0" d="M39.8,21.6v-2.2c0-3.7-1.9-5.7-4.2-5.7c-2.4,0-4.2,1.7-4.2,4.1c0,2.2,0.4,4,2.6,6.4L43.4,35
		c3.7,4.3,6,7.1,6,13.3c0,7.5-6.3,11.7-13.8,11.7c-7.5,0-13.6-4.3-13.6-11.7v-5.4h9.4v4.9c0,3.2,1.8,4.8,4.2,4.8
		c2.3,0,4.2-1.7,4.2-4.8c0-2.8-1.1-4.9-3.1-7.1l-7.8-8c-4.9-5.8-7-7.5-7-14.6c0-7.1,5.7-11.6,13.7-11.6c7.9,0,13.5,4.7,13.5,11.6
		v3.7H39.8z"/>
</g>
<text transform="matrix(1 0 0 1 58.4178 58.5636)" class="st1 st2 st3">TAY</text>
<rect x="1.1" y="2.5" class="st4" width="151.5" height="64.9"/>
<circle class="st5" cx="58.1" cy="54.6" r="3.6"/>
</svg>
